<svg width="54" height="54" viewBox="0 0 54 54" fill="none" xmlns="http://www.w3.org/2000/svg">
<g clip-path="url(#clip0_212_545)">
<path d="M51 27.1467C51 13.8087 40.254 2.9967 27 2.9967C13.74 2.9997 2.99402 13.8087 2.99402 27.1497C2.99402 39.2007 11.772 49.1907 23.244 51.0027V34.1277H17.154V27.1497H23.25V21.8247C23.25 15.7737 26.835 12.4317 32.316 12.4317C34.944 12.4317 37.689 12.9027 37.689 12.9027V18.8427H34.662C31.683 18.8427 30.753 20.7057 30.753 22.6167V27.1467H37.407L36.345 34.1247H30.75V50.9997C42.222 49.1877 51 39.1977 51 27.1467Z" fill="#979797"/>
</g>
<defs>
<clipPath id="clip0_212_545">
<rect width="48" height="48" fill="white" transform="translate(3 3)"/>
</clipPath>
</defs>
</svg>
