<svg width="52" height="52" viewBox="0 0 52 52" fill="none" xmlns="http://www.w3.org/2000/svg">
<circle cx="26" cy="26" r="24" fill="#979797"/>
<path d="M18.1301 23.2952C17.8323 24.1658 17.6809 25.0798 17.6822 26C17.6822 27.0276 17.8669 28.0118 18.2084 28.9204C18.6341 30.056 19.3027 31.0849 20.1675 31.9351C21.0323 32.7852 22.0724 33.4361 23.2149 33.8422C24.3575 34.2482 25.575 34.3996 26.7822 34.2859C27.9894 34.1721 29.1572 33.7958 30.2038 33.1834H30.2052C31.8541 32.2165 33.121 30.7125 33.794 28.9232H26.3099V23.3848H39.7539C40.1016 25.2167 40.0807 27.0995 39.6923 28.9232C39.0194 32.0758 37.279 34.8995 34.7654 36.9172C32.2826 38.9169 29.1896 40.0049 26.0019 40C23.5986 40.0013 21.2355 39.3836 19.1401 38.2062C17.0448 37.0289 15.2879 35.3316 14.0388 33.278C12.7896 31.2244 12.0903 28.8836 12.0082 26.4811C11.926 24.0787 12.4639 21.6956 13.5699 19.5614C14.7498 17.2821 16.5336 15.3711 18.7262 14.0376C20.9188 12.704 23.4358 11.9991 26.0019 12C29.3976 12 32.5119 13.2096 34.9362 15.2228L30.4012 18.9356C29.3388 18.2743 28.1411 17.861 26.8971 17.7265C25.653 17.5919 24.3947 17.7396 23.2156 18.1585C22.0365 18.5774 20.9669 19.2568 20.0865 20.1461C19.206 21.0354 18.5373 22.1118 18.1301 23.2952Z" fill="white"/>
</svg>
