<svg width="40" height="40" viewBox="0 0 40 40" fill="none" xmlns="http://www.w3.org/2000/svg">
<rect width="40" height="40" rx="15" fill="#5EC75A"/>
<path d="M31.3782 18.0559C30.7927 12.6116 26.58 8.29009 21.2727 7.68952V5H18.7273V7.68952C13.42 8.29009 9.20727 12.6116 8.62182 18.0559H6V20.6671H8.62182C9.20727 26.1114 13.42 30.4329 18.7273 31.0335V33.723H21.2727V31.0335C26.58 30.4329 30.7927 26.1114 31.3782 20.6671H34V18.0559H31.3782ZM20 28.5006C15.0745 28.5006 11.0909 24.4141 11.0909 19.3615C11.0909 14.3089 15.0745 10.2224 20 10.2224C24.9255 10.2224 28.9091 14.3089 28.9091 19.3615C28.9091 24.4141 24.9255 28.5006 20 28.5006Z" fill="white"/>
</svg>
