<svg width="152" height="81" viewBox="0 0 152 81" fill="none" xmlns="http://www.w3.org/2000/svg">
<path d="M72.1896 9.78331C72.5791 9.86855 73.7646 10.8615 73.8958 11.309C74.37 12.9455 73.0237 20.071 72.5749 22.1635C71.779 25.8839 70.6867 29.4339 69.1837 32.9199C69.3403 33.785 73.9847 36.4784 74.6325 37.4841C75.7036 39.1547 72.9856 42.8879 71.2201 42.8496C70.475 42.8325 66.8636 39.0567 66.0761 38.3237C64.5689 40.5483 62.9474 42.7047 60.9279 44.4946C59.5307 45.7305 58.4257 47.026 56.3851 46.1268C55.5256 45.7475 53.214 43.3695 53.396 42.4149C53.5019 41.8609 61.0888 36.6403 61.3428 34.5862C61.3428 33.883 55.2377 30.4737 54.6958 28.6838C54.1539 26.8939 57.5409 15.9542 56.8931 15.2979C55.9913 15.2382 54.3063 15.6388 53.8321 14.6501C53.5823 14.1345 53.54 10.8658 53.7178 10.316C54.0904 9.1739 57.3461 10.1583 57.8245 9.74923C58.2648 9.36994 58.5485 3.08824 58.8914 1.90776C59.319 0.446012 64.3318 0.838082 64.734 1.7586C65.2378 2.90073 64.1752 8.24059 63.9762 9.78331C66.3301 10.1328 70.022 9.31027 72.1896 9.78331ZM67.5156 15.6218H63.0066C62.4436 15.6218 61.9186 25.6538 61.1099 26.7575L64.2895 29.2378C66.0465 24.8824 67.071 20.3096 67.5156 15.6175V15.6218Z" fill="white"/>
<path d="M89.7343 20.8125C89.7343 20.9915 89.8825 21.1322 90.0603 21.1322H97.6345C97.8038 21.1322 98.9596 21.3623 99.0824 22.2658V26.9664L90.0645 27.2903V40.0966C90.018 41.3154 89.4718 42.6024 89.2263 43.1437C88.5065 44.7247 86.7622 46.1567 85.0433 46.3911C83.8028 46.5573 79.4844 46.7661 78.6207 46.1013C77.6004 45.3214 76.1482 40.2585 77.3421 40.2585H82.1728C82.6682 40.2841 83.3032 39.6448 83.299 38.801V27.2903H75.0855C75.0305 27.2903 74.9035 27.1795 74.7511 27.0814C74.4632 26.9025 74.2811 26.5914 74.2811 26.2504V22.2615C74.2811 21.6393 74.7892 21.1279 75.4073 21.1279H82.8841C83.1127 21.1279 83.299 20.9404 83.299 20.7103V14.9655C83.299 14.8292 85.0433 13.9768 85.5556 13.5123C86.9866 12.2168 88.2313 10.6783 89.7385 9.4552H75.7248C74.26 9.4552 74.0186 3.51869 76.1186 3.36527L94.7386 3.2843C99.781 4.92504 97.1095 9.09296 95.018 12.0122C94.0104 13.4228 90.7208 16.7853 90.2254 17.889C89.8275 18.7669 89.7131 19.7897 89.7301 20.804L89.7343 20.8125Z" fill="white"/>
<path d="M18.874 14.974C17.4727 15.1616 16.1263 15.4684 14.6869 15.2979V22.7558C16.9011 21.9291 18.9799 20.7742 19.4414 23.9704C19.9918 27.7889 17.7436 27.7846 14.7207 28.6284C14.1365 32.5577 15.8935 41.5881 13.3659 44.6182C13.3109 44.6821 12.1 45.6197 12.0365 45.6751C11.6978 45.9521 10.6013 46.2376 9.6233 46.3612C8.8951 46.4507 5.4954 46.5828 4.91538 46.3825C3.89928 46.0331 2.90435 41.7757 3.09063 40.5994H7.76045C9.14912 40.5994 7.83666 31.7181 8.2431 30.5462C6.64698 30.478 4.08556 31.8289 2.65879 30.8999C1.99409 30.4652 1.52838 27.0516 1.96022 26.3271C2.56141 25.3128 7.53183 25.2958 8.5691 24.2261V15.4727C8.5691 15.2042 8.35318 14.9868 8.08645 14.9868H2.60798C1.96445 14.9868 1.96869 10.316 2.14227 10.1371C2.56565 9.6981 7.30321 9.81742 8.24733 9.79611V1.85237C8.24733 0.245727 13.73 0.467324 14.2889 1.12362C15.1737 2.15921 14.4413 8.14685 14.6869 9.80038C20.2839 9.32734 19.3016 10.5717 18.8783 14.9868C20.9062 14.7141 22.9342 14.2666 25.0003 14.3391C24.8606 10.5845 24.2297 5.86686 24.6616 2.16347C24.6997 1.83532 24.8098 1.04691 25.1612 1.04691C25.1612 1.04691 28.5947 1.0043 30.0681 1.08953C30.4322 1.11084 30.7201 1.41342 30.7243 1.77992C30.792 5.5515 31.0291 10.4268 31.444 14.0194L43.2054 12.7154C44.4332 12.9668 45.5297 17.2498 43.7685 17.8336C42.274 18.3152 31.914 18.7712 31.7404 19.4019C32.0537 22.1677 32.3458 24.9847 33.0529 27.6355C34.2679 26.7192 37.7566 20.2372 38.743 19.9005C40.3264 19.3593 43.2266 21.993 42.9852 23.5059C42.5619 26.1268 37.456 31.7863 35.7963 34.1302C34.8988 36.0608 37.3586 38.7328 38.688 39.9559L40.6651 35.7198C44.5856 37.0793 47.2571 36.5168 45.7033 41.5114C42.6211 51.4156 33.0698 46.3996 30.3094 39.3082C29.5812 39.3082 23.1205 45.3384 20.9443 45.4791C19.3313 45.5813 16.7614 40.3097 18.9629 39.2357C21.1645 38.1618 24.5557 36.1844 26.4397 34.4413C28.8699 32.1954 27.4643 31.7053 26.9224 28.7648C26.3805 25.8242 25.8724 22.824 25.4956 19.8366C24.2551 19.0823 19.7462 20.0923 19.1873 19.713C18.0527 18.9417 18.7809 16.0267 18.8783 14.9954L18.874 14.974Z" fill="white"/>
<path d="M36.5033 2.06118C37.1892 1.91203 37.4602 1.9589 38.0571 2.31262C38.7557 2.726 42.5915 7.4522 42.8285 8.23208C43.3535 9.96232 40.8217 12.9966 39.1748 12.2253C38.6668 11.9866 33.654 5.52592 33.4931 4.92929C33.2433 4.00451 35.6566 2.24444 36.5033 2.06118Z" fill="white"/>
<path d="M115.729 9.45943C115.611 9.45943 115.513 9.55319 115.509 9.67678C115.45 12.3574 115.611 15.0593 115.526 17.7441C115.302 25.1296 115.179 32.7963 113.486 40.0071C113.295 40.8168 112.334 44.0812 111.995 44.5841C110.649 46.5913 105.238 44.4008 105.213 42.7047C105.204 42.0995 107.279 37.3734 107.626 36.0522C110.171 26.3442 108.248 16.6617 109.061 7.0175C109.235 4.93781 109.264 4.13236 111.475 3.93206C113.71 3.73176 126.559 4.50311 127.114 3.9491C127.292 3.77011 126.767 1.62223 127.415 1.1705C127.673 0.987244 132.821 0.889227 133.342 1.01282C133.863 1.1364 133.757 3.638 135.332 3.94058L150.569 4.10678C150.607 4.10678 150.649 4.1153 150.683 4.13661C151.737 4.80996 152.017 9.45943 150.467 9.45943H135.708C135.59 9.45943 135.488 9.55746 135.488 9.68104V11.8374C135.488 11.9568 135.586 12.059 135.708 12.059H147.563C147.66 12.059 147.749 12.1272 147.775 12.221C148.3 14.1899 147.978 16.2824 148.041 18.3109C148.041 18.4388 148.156 18.5325 148.283 18.524C152.301 18.1831 152.097 18.7627 151.928 22.547C151.924 22.6663 151.826 22.7601 151.712 22.7601H148.27C148.151 22.7601 148.05 22.8581 148.05 22.9774V28.7563C148.05 29.2805 146.623 29.2847 145.734 29.2591C145.531 29.2549 145.429 29.5106 145.586 29.6427C145.768 29.8046 145.98 29.9751 146.212 30.1328C146.538 30.3544 148.147 31.6926 147.978 32.2295C147.368 34.1558 144.79 35.4172 143.338 36.7511C143.261 36.8236 143.249 36.9344 143.3 37.0282C144.21 38.6859 149.866 40.4332 150.15 40.9063C150.916 42.1805 149.223 45.0657 148.046 45.6069C146.568 46.2888 144.921 44.9463 143.693 44.1622C140.802 42.3169 138.562 39.6491 135.835 37.5992C135.692 37.4927 135.488 37.5992 135.488 37.7782V43.0158C135.488 44.1537 134.062 46.1907 132.927 46.5956C131.792 47.0005 126.813 47.384 125.827 46.9067C124.925 46.472 124.112 43.2843 124.197 42.0399C124.205 41.9291 124.29 41.8396 124.404 41.8353C125.171 41.7842 127.952 42.1422 128.837 41.5796C129.387 41.2302 129.819 38.7073 128.901 38.9672L118.105 44.3114C115.983 45.7902 113.21 41.3324 114.328 40.0284C115.243 38.963 120.429 37.8464 122.347 37.1177C122.482 37.0665 122.533 36.896 122.444 36.781C121.25 35.2425 118.74 33.8873 117.673 32.417C117.453 32.1145 117.762 31.4198 118.265 30.8573C118.617 30.4609 118.964 29.9325 119.337 29.5873C119.485 29.4509 119.375 29.1995 119.176 29.208C118.727 29.2293 118.32 29.2549 118.066 29.0418C117.393 28.4793 117.601 25.0145 118.587 25.0145H129.159C129.277 25.0145 129.375 24.9165 129.379 24.7972V22.9689C129.379 22.8453 129.282 22.7473 129.159 22.7516C126.708 22.7942 124.248 22.6834 121.796 22.7345C120.509 22.7601 116.86 23.9278 116.496 21.9376C116.364 21.2216 116.411 18.5325 117.3 18.5325H129.163C129.282 18.5325 129.383 18.4345 129.383 18.3109V16.4784C129.383 16.3591 129.286 16.2568 129.163 16.2568H117.622C116.724 16.2568 117.245 12.042 117.461 12.042H129.163C129.282 12.042 129.383 11.944 129.383 11.8204V9.66399C129.383 9.54467 129.286 9.44239 129.163 9.44239H115.742L115.729 9.45943ZM135.484 16.5594V18.2427C135.484 18.4047 135.615 18.5368 135.776 18.5368H142.283C142.444 18.5368 142.576 18.4047 142.576 18.2427V16.5594C142.576 16.3974 142.444 16.2653 142.283 16.2653H135.776C135.615 16.2653 135.484 16.3974 135.484 16.5594ZM135.484 23.0456V24.729C135.484 24.8909 135.615 25.023 135.776 25.023H142.283C142.444 25.023 142.576 24.8909 142.576 24.729V23.0456C142.576 22.8837 142.444 22.7516 142.283 22.7516H135.776C135.615 22.7516 135.484 22.8837 135.484 23.0456ZM129.146 29.2378H121.635C121.428 29.2378 121.339 29.5063 121.504 29.6342L125.484 32.6813C125.615 32.7835 125.721 32.9199 125.763 33.0776C126.047 34.1387 124.819 35.1829 124.214 36.0821C124.095 36.2611 124.277 36.4827 124.476 36.406C125.937 35.8264 129.366 34.5521 129.366 33.9427V29.4594C129.366 29.3401 129.269 29.2378 129.146 29.2378ZM143.964 29.2378H135.751C135.607 29.2378 135.501 29.3742 135.539 29.5148C135.984 31.2323 138.49 32.1826 139.684 33.5847C139.769 33.6828 139.913 33.6955 140.006 33.606L144.117 29.6171C144.256 29.4807 144.163 29.2378 143.964 29.2378Z" fill="white"/>
<path d="M20.9105 60.7017L16.9985 61.2856C16.7318 61.3239 16.465 61.1961 16.3338 60.9617C15.8681 60.1221 15.5378 59.3124 14.6445 58.7499C12.7774 57.5736 7.34553 57.5268 6.45645 59.99C4.91113 64.2559 11.6131 64.6992 14.1915 65.364C18.2982 66.4209 22.1679 67.7207 22.3626 72.7281C22.6505 80.1648 14.852 81.3069 9.15758 80.9148C5.12705 80.6335 0.986443 78.7115 0.021149 74.5734C-0.063526 74.2112 0.156629 73.849 0.520731 73.7722C1.5199 73.5592 3.48012 73.3035 4.49199 73.1586C4.79682 73.1159 5.09318 73.2907 5.19902 73.5847C5.98227 75.8264 7.97213 76.7043 10.3261 76.8662C13.0145 77.0537 17.5446 76.6744 17.0239 72.8773C16.6174 69.9197 10.7452 69.4552 8.4209 68.833C4.01357 67.6525 0.50803 65.9052 1.04572 60.5696C1.65961 54.4456 8.76807 53.8575 13.5861 54.2027C17.388 54.4754 20.5972 56.1162 21.4608 59.9218C21.5455 60.2926 21.2915 60.6591 20.9189 60.7145L20.9105 60.7017Z" fill="white"/>
<path d="M30.5592 60.4758C30.919 60.4758 31.2112 60.7699 31.2112 61.1321V72.5917C31.2112 73.2438 31.6176 74.8078 31.9224 75.413C32.8284 77.2242 35.3052 77.6248 36.8717 76.4571C38.4382 75.2894 38.9039 73.0563 39.0182 71.1513C39.2087 67.8741 38.9081 64.4264 38.997 61.1108C39.0055 60.7571 39.2976 60.4758 39.649 60.4758H43.4382C43.7981 60.4758 44.0944 60.7699 44.0902 61.1364L44.0309 79.8621C44.0309 80.2244 43.7388 80.5184 43.3789 80.5184H39.4754C39.3865 80.5184 39.2976 80.3011 39.2807 80.1903C39.1283 79.3081 39.2807 78.524 39.1833 77.6546C39.1791 77.6035 39.1664 77.4756 39.1537 77.3478C39.141 77.2071 38.9631 77.1517 38.8742 77.2668C38.5398 77.6972 37.9513 78.4515 37.7692 78.6689C34.1409 83.0712 26.1349 80.8935 26.1349 74.8163V61.1279C26.1349 60.7656 26.427 60.4716 26.7869 60.4716H30.5549L30.5592 60.4758Z" fill="white"/>
<path d="M69.2133 71.9653V79.973C69.2133 80.2756 68.9677 80.5227 68.6671 80.5227H64.4207C64.1201 80.5227 63.8745 80.2756 63.8745 79.973V55.1317C63.8745 54.8292 64.1201 54.582 64.4207 54.582H76.5461C76.5461 54.582 76.5758 54.582 76.5927 54.582C81.8087 54.9783 85.3015 57.7527 85.0941 63.3013C84.9586 66.8854 82.7994 69.7194 79.4293 70.8317C76.3302 71.8545 72.9093 71.0789 69.7002 71.4241C69.4207 71.4539 69.2133 71.6883 69.2133 71.9696V71.9653ZM75.7883 58.7712C73.8662 58.5666 71.6265 58.9033 69.6451 58.7882C69.4927 58.7797 69.3403 58.8266 69.2344 58.9374C69.2217 58.9502 69.2133 58.963 69.2133 58.9672V66.6084C69.2133 66.911 69.4588 67.1582 69.7594 67.1582H76.309C77.7993 67.1582 79.4293 65.3896 79.6156 63.9363C79.9966 61.0171 78.7561 59.0908 75.7883 58.7712Z" fill="white"/>
<path d="M60.7542 63.9576C60.7542 64.3412 60.4282 64.6438 60.0472 64.6139C58.3622 64.4776 56.7576 64.4136 55.6187 65.9862C55.1022 66.6979 54.5052 68.5816 54.5052 69.4509V79.8622C54.5052 80.2244 54.2131 80.5185 53.8532 80.5185H50.1402C49.7846 80.5185 49.4925 80.2287 49.4882 79.8707L49.1834 61.1449C49.1792 60.7784 49.4713 60.4759 49.8354 60.4759H53.5018C53.8448 60.4759 54.1326 60.7444 54.1538 61.0895L54.3316 63.8681C54.3443 64.0599 54.6026 64.1196 54.6915 63.9491L55.932 61.6563C55.9489 61.6265 55.9659 61.5967 55.987 61.5669C56.6179 60.7188 57.5577 60.2926 58.5993 60.2074C58.8914 60.1818 60.75 60.1648 60.75 60.5398V63.9534L60.7542 63.9576Z" fill="white"/>
<path d="M139.426 71.6116C138.998 71.7437 139.409 73.9427 139.527 74.3902C140.544 78.166 145.323 78.7627 146.865 75.1445C148.342 75.332 149.942 75.3107 151.399 75.5451C151.564 75.5707 151.636 75.4599 151.594 75.7369C151.445 76.7512 149.743 78.7201 148.901 79.3167C144.993 82.074 137.948 81.5114 135.349 77.1518C132.254 71.9568 133.35 62.3893 140.035 60.5696C147.436 58.5581 151.704 63.2587 151.979 70.3672C151.987 70.6058 152.055 71.6116 151.784 71.6116H139.422H139.426ZM146.911 68.3344C146.941 65.6325 145.675 63.2672 142.677 63.4803C140.15 63.6636 139.29 66.1098 139.235 68.3344H146.915H146.911Z" fill="white"/>
<path d="M130.285 66.9193L126.458 67.1196C126.128 67.1367 125.831 66.9065 125.78 66.5784C125.281 63.4674 120.929 62.5895 119.299 65.4917C118.151 67.533 118.105 72.1228 118.765 74.3261C120.082 78.7497 125.099 78.2468 126.068 74.2196C126.14 73.9127 126.424 73.7081 126.737 73.7252L130.48 73.9255C130.874 73.9468 131.153 74.309 131.09 74.6969C130.535 78.0167 127.165 80.5609 123.926 80.889C118.304 81.4601 114.053 79.0182 113.092 73.2223C112.381 68.9223 113.363 63.412 117.563 61.2513C122.351 58.7881 129.608 60.4203 130.891 66.1139C130.979 66.5102 130.687 66.8937 130.285 66.915V66.9193Z" fill="white"/>
<path d="M100.45 64.4861C100.45 64.5841 100.365 64.665 100.268 64.6565C98.35 64.5415 96.7327 64.192 95.3779 65.9137C94.8275 66.6126 94.2051 68.3088 94.2051 69.1867V80.348C94.2051 80.4417 94.1289 80.5184 94.0358 80.5184H89.3617C89.2686 80.5184 89.1924 80.4417 89.1924 80.3523L88.8706 60.6506C88.8706 60.5568 88.9468 60.4758 89.04 60.4758H93.6547C93.7437 60.4758 93.8199 60.544 93.8241 60.6335L94.0358 63.9406C94.0485 64.1153 94.2856 64.1622 94.3575 64.0002L94.6116 63.4419C95.3567 61.814 96.1992 60.3906 98.1679 60.2073C98.4727 60.1775 100.45 60.1605 100.45 60.5398V64.4861Z" fill="white"/>
<path d="M107.084 60.4758H105.264C104.328 60.4758 103.57 61.239 103.57 62.1805V78.8138C103.57 79.7552 104.328 80.5184 105.264 80.5184H107.084C108.019 80.5184 108.778 79.7552 108.778 78.8138V62.1805C108.778 61.239 108.019 60.4758 107.084 60.4758Z" fill="white"/>
<path d="M103.964 53.1415H108.092C108.469 53.1415 108.778 53.4526 108.778 53.8319V56.3761C108.778 56.7554 108.469 57.0665 108.092 57.0665H104.261C103.884 57.0665 103.575 56.7554 103.575 56.3761V53.3333C103.575 53.3333 103.609 53.2864 103.651 53.2523C103.74 53.1799 103.85 53.1373 103.964 53.1373V53.1415Z" fill="white"/>
</svg>
