<svg width="142" height="124" viewBox="0 0 142 124" fill="none" xmlns="http://www.w3.org/2000/svg">
<g clip-path="url(#clip0_38_502)">
<path d="M100.964 77.7733C100.964 61.1711 87.619 47.7145 71.1551 47.7145C54.6911 47.7145 41.3465 61.1711 41.3465 77.7733C41.3465 85.0967 43.945 91.8068 48.2597 97.02C48.0279 90.5012 49.434 83.8214 53.2097 78.4959C56.0882 74.4364 61.4808 69.7333 65.8949 67.4743C71.2002 64.7539 78.5319 63.3876 84.4304 63.2236C85.2825 63.1993 87.8358 62.3036 88.453 63.2904C88.8836 63.9766 87.2998 73.2371 86.9415 74.8099C83.8372 88.473 76.358 98.945 62.6521 103.174C62.0469 103.36 59.6983 104.049 57.4582 104.48C61.5591 106.624 66.2171 107.835 71.1551 107.835C87.619 107.835 100.964 94.3785 100.964 77.7763V77.7733Z" fill="white"/>
<path d="M72.8562 77.5061C73.2507 77.081 73.5969 76.58 74.0546 76.079C74.3407 75.7663 75.521 75.4171 74.1389 75.3503L63.161 83.3326C57.9159 88.3333 54.2846 93.3552 50.2861 99.2334C51.3941 100.329 52.5865 101.338 53.8511 102.251C56.844 96.5403 60.4932 91.2542 64.6213 86.3203C67.1595 83.2871 70.0952 80.4786 72.8593 77.5061H72.8562Z" fill="white"/>
<path d="M141.946 105.801L136.881 40.385C136.201 31.5981 128.929 24.8152 120.189 24.8152H108.596C102.252 10.22 87.7876 0 70.9984 0C54.2093 0 39.7477 10.22 33.4005 24.8152H21.8083C13.0675 24.8152 5.79604 31.5951 5.11556 40.385L0.0511197 105.801C-0.707643 115.614 6.98236 123.997 16.7439 123.997H96.414L89.7417 115.295C86.1345 117.065 82.3287 118.52 78.3422 119.145C48.3921 123.842 23.2295 96.3702 31.0309 66.6637C36.2911 46.6306 57.8134 32.3086 78.1404 36.8903C78.4897 36.9692 78.9444 36.532 79.2756 36.7142C80.4047 37.3427 79.661 36.8903 80.8292 37.1545C109.153 43.6125 121.369 77.415 105.51 101.374C104.023 103.621 102.108 105.494 100.506 107.635L112.586 123.997H125.259C135.021 123.997 142.711 115.611 141.952 105.801H141.946ZM42.8459 24.8152C48.5096 15.0658 59.0088 8.50147 70.9984 8.50147C82.9881 8.50147 93.4903 15.0658 99.1509 24.8152H42.8459Z" fill="white"/>
</g>
<defs>
<clipPath id="clip0_38_502">
<rect width="142" height="124" fill="white"/>
</clipPath>
</defs>
</svg>
