<svg width="150" height="86" viewBox="0 0 150 86" fill="none" xmlns="http://www.w3.org/2000/svg">
<path d="M5.46602 63.794H15.1009V54.9187C16.0805 55.1125 19.5388 54.4295 19.8741 55.4387L19.7783 77.7606C19.3999 78.2947 15.1009 78.238 15.1009 77.5809V68.2305H5.46602V77.5809C5.46602 78.238 1.16708 78.2947 0.788676 77.7606C-0.0639285 76.5504 1.11439 58.3909 0.692879 55.4387C0.999433 54.524 5.46602 54.7816 5.46602 55.3938V63.794Z" fill="white"/>
<path d="M50.7522 64.4299C52.0264 63.7255 52.6898 62.4066 53.631 61.4068C54.7949 60.1683 56.5169 58.7289 57.6761 57.4738C58.646 56.4243 58.5694 55.1693 60.5356 54.9069C61.6804 54.7533 64.7555 54.5004 64.5759 56.0178C64.5352 56.37 60.7129 60.693 60.0662 61.4163C59.0699 62.5295 57.4102 63.3142 56.8953 65.1626L65.5363 77.276C65.5555 78.5878 60.8422 78.1387 59.9417 77.7086L53.1616 68.24C52.8622 68.6489 50.7522 70.4429 50.7522 70.6107V77.5833C50.7522 78.3798 46.6928 78.1009 45.9336 77.7417V55.3962C45.9336 54.2687 50.7522 54.2687 50.7522 55.3962V64.4299Z" fill="white"/>
<path d="M74.1965 61.8937C76.1651 60.1636 80.5048 59.6861 82.6315 61.2485C83.1584 61.6361 83.5607 62.7493 84.4876 63.0708C84.7654 63.7681 85.0408 64.463 85.1175 65.2217C85.2588 66.5973 85.3402 77.2477 84.9762 77.7629C84.6409 78.2357 81.0987 78.2451 80.761 77.7629C80.1383 76.8813 81.1035 68.2731 80.1503 65.6802C79.36 63.5317 74.7329 64.0233 74.2132 66.8218C73.7797 69.1547 74.8096 75.865 74.0384 77.4273C73.5738 78.3657 69.8736 78.2664 69.5191 77.7629C68.6497 76.5315 69.8568 57.8142 69.4233 54.8077C69.7418 53.8433 74.1965 54.1151 74.1965 55.0795V61.8937Z" fill="white"/>
<path d="M110.49 61.0995C110.693 60.4496 113.802 60.5086 114.528 60.5985C115.167 60.6788 114.853 61.3028 115.454 61.291C116.937 61.2626 118.113 60.1068 120.623 60.2959C129.197 60.9365 126.074 72.1139 126.409 77.7606C126.074 78.2333 122.211 78.2427 121.873 77.7606C121.25 76.8789 122.127 68.5662 121.664 66.5547C120.97 63.5317 116.017 63.7444 115.375 66.5547C114.918 68.5638 115.787 76.8837 115.167 77.7606C114.791 78.2924 110.49 78.2404 110.49 77.5809V61.0995Z" fill="white"/>
<path d="M143.245 62.2105C142.287 59.9768 147.42 60.3007 147.7 61.1445C147.496 66.4035 148.126 72.0667 147.757 77.2784C147.568 79.9469 147.137 81.9465 144.876 83.627C144.115 84.1919 142.108 84.9412 141.152 85.0239C138.331 85.2721 134.827 85.0688 132.887 82.7312C131.982 81.6392 130.617 78.9447 132.791 78.6753C136.674 78.1908 135.462 79.9067 137.378 80.8356C141.203 82.691 143.717 79.0062 143.243 75.5199C140.29 78.5713 134.566 78.0986 132.265 74.4728C127.352 66.7367 134.832 55.7129 143.243 62.2081L143.245 62.2105ZM138.999 64.1699C134.03 64.723 134.559 73.6243 139.231 73.6479C144.907 73.6763 144.464 63.5601 138.999 64.1699Z" fill="white"/>
<path d="M105.352 77.5833C105.142 78.2616 102.033 78.2262 101.499 77.9C101.197 77.7133 100.955 76.8198 100.699 76.7962C100.503 76.7797 98.3688 78.1907 97.1377 78.3467C92.2592 78.9684 87.9914 75.501 90.1996 70.5516C91.8329 66.8951 94.8697 68.5165 97.4251 67.9091C97.6646 67.8523 97.6191 67.3489 97.8682 67.2898C98.6657 67.1007 99.947 67.3016 100.857 66.9613C101.245 64.2526 98.2035 63.3899 96.1151 64.3448C95.2553 64.7395 94.9032 66.2475 94.5272 66.3349C93.3633 66.6091 90.6139 66.7131 90.5492 65.2217C90.3265 60.0477 100.666 58.7903 103.923 62.1939C104.268 62.5532 105.352 64.5693 105.352 64.9026V77.5809V77.5833ZM100.857 70.1332C99.1783 70.3081 94.8601 70.2159 94.4841 72.2723C93.8638 75.657 99.9542 75.0991 100.713 72.6883C100.977 71.8539 100.84 70.9818 100.86 70.1332H100.857Z" fill="white"/>
<path d="M38.1284 61.6739C38.2625 61.7826 40.3366 63.8579 40.4347 63.9926C41.8118 65.8669 42.0633 69.8449 41.6035 72.0406C39.5486 81.8567 22.6163 80.6536 24.1299 67.7909C24.8723 61.4919 33.2762 57.7598 38.1284 61.6739ZM32.9769 64.2219C29.0108 64.3353 28.4504 68.7481 29.3269 71.7854C29.9927 74.0946 31.013 74.8037 33.5684 74.5886C38.15 74.201 38.4972 64.0659 32.9769 64.2219Z" fill="white"/>
<path d="M70.1825 8.95852C70.5729 9.04125 71.7512 10.0103 71.8829 10.45C72.3571 12.0501 71.0112 19.0133 70.5633 21.0625C69.7682 24.6977 68.6809 28.1699 67.1816 31.5758C67.3373 32.422 71.9691 35.0527 72.6134 36.0359C73.6815 37.6668 70.9728 41.3186 69.2102 41.2831C68.4677 41.2666 64.8657 37.5746 64.0802 36.8585C62.5785 39.0353 60.9619 41.1437 58.9478 42.888C57.5539 44.0958 56.4522 45.3627 54.4189 44.4811C53.5615 44.11 51.2552 41.7866 51.4396 40.8553C51.545 40.3164 59.1106 35.211 59.3645 33.2043C59.3645 32.5189 53.2765 29.1839 52.7353 27.4324C52.194 25.681 55.5733 14.9904 54.9266 14.3475C54.0261 14.2884 52.3473 14.6784 51.8731 13.7141C51.624 13.2083 51.5809 10.0127 51.7581 9.47852C52.1293 8.36053 55.3745 9.32488 55.8535 8.92307C56.2942 8.55435 56.5744 2.41135 56.9192 1.25791C57.3455 -0.169702 62.3438 0.213202 62.7462 1.11137C63.2467 2.22699 62.1881 7.44818 61.9894 8.95852C64.3364 9.29888 68.0175 8.49762 70.1801 8.95852H70.1825ZM65.5267 14.6643H61.0314C60.471 14.6643 59.9465 24.4708 59.1394 25.551L62.3103 27.9761C64.0634 23.7168 65.0836 19.2473 65.5267 14.6619V14.6643Z" fill="white"/>
<path d="M87.6872 20.0532H95.5571C95.7247 20.0532 97.0012 21.0318 97.0012 21.1618V25.759L88.0082 26.0757V38.5957C88.0082 39.0424 87.4166 41.0467 87.1723 41.5738C86.4538 43.1196 84.7175 44.5212 83.0027 44.7481C81.7669 44.9112 77.4608 45.1121 76.5986 44.4645C75.5831 43.7011 74.1318 38.7517 75.3221 38.7517H80.1407C80.2725 38.7517 81.264 37.4919 81.264 37.3264V26.0733H73.0732C72.9678 26.0733 72.5846 25.6526 72.2709 25.7566V21.1594C72.2709 20.8309 73.0612 20.0509 73.3941 20.0509H81.264V14.0284C81.264 13.8961 83.0027 13.0617 83.5152 12.6055C84.9426 11.341 86.1808 9.83539 87.6872 8.63941H73.7151C72.2541 8.63941 72.0123 2.83677 74.1078 2.68786L92.6711 2.60986C97.6981 4.21475 95.0374 8.28723 92.9514 11.1425C91.9455 12.5204 88.6668 15.8082 88.171 16.886C87.7351 17.8362 88.3099 19.0723 87.6848 20.0509L87.6872 20.0532Z" fill="white"/>
<path d="M17.0289 14.0308C15.6326 14.2152 14.2914 14.5153 12.8545 14.3475V21.6369C15.0602 20.8285 17.1366 19.6987 17.5941 22.8234C18.1425 26.5579 15.9008 26.5508 12.888 27.3757C12.3084 31.2189 14.0591 40.0422 11.5372 43.0062C11.4821 43.07 10.2895 44.0036 10.2104 44.0391C10.0332 44.1171 9.64761 43.8736 9.32429 43.9729C8.78782 44.1383 8.36391 44.5922 7.80349 44.708C7.085 44.8569 3.68896 44.9231 3.10938 44.7269C2.09632 44.3842 1.10241 40.2219 1.29161 39.0731H5.9498C7.33408 39.0731 6.02404 30.3893 6.43118 29.2477C4.84093 29.1815 2.28791 30.5027 0.862913 29.5927C0.199511 29.1697 -0.262716 25.8323 0.165981 25.1232C0.764719 24.1328 5.71988 24.1163 6.75451 23.0692V14.5106C6.75451 14.4775 6.30665 14.0355 6.27312 14.0355H0.812621C0.168378 14.0355 0.175563 9.47141 0.347999 9.29651C0.769512 8.8687 5.49476 8.98451 6.43358 8.96324V1.19645C6.43358 -0.372981 11.8989 -0.157893 12.4593 0.482643C13.343 1.49426 12.6126 7.34654 12.8568 8.96324C18.4371 8.50234 17.4576 9.71723 17.0336 14.0332C19.055 13.7661 21.0763 13.3312 23.1384 13.3997C22.9995 9.72905 22.3696 5.11766 22.7983 1.49663C22.8366 1.17754 22.9444 0.40228 23.2965 0.40228H27.9546C28.0409 0.40228 28.6444 1.63372 28.9246 1.81808C28.9773 5.57147 29.1306 9.37924 29.5641 13.083L41.2898 11.809C42.5136 12.0548 43.6081 16.2408 41.8526 16.8104C40.3629 17.2808 30.0335 17.7251 29.861 18.3444C30.1724 21.0483 30.4646 23.8019 31.1711 26.3901C32.3829 25.4943 35.8604 19.1574 36.8447 18.8265C38.4254 18.2971 41.3161 20.8711 41.0718 22.3483C40.6479 24.9105 35.5562 30.4436 33.9037 32.7363C33.0104 34.6225 35.4628 37.2366 36.7872 38.4302L38.7583 34.2916C42.6669 35.6199 45.3324 35.0716 43.7805 39.9524C40.7054 49.6313 31.1854 44.7316 28.4312 37.7992C27.7032 37.7968 21.2655 43.694 19.0933 43.8287C17.4839 43.928 14.9237 38.773 17.1175 37.7235C19.2921 36.6812 22.6953 34.7407 24.573 33.0365C26.9967 30.8384 25.5956 30.3633 25.0544 27.4891C24.5131 24.6103 24.0078 21.6818 23.6341 18.7627C22.396 18.0276 17.9006 19.0109 17.345 18.6422C16.2146 17.8906 16.9379 15.0377 17.036 14.0308H17.0289Z" fill="white"/>
<path d="M34.6054 1.40682C35.2904 1.26027 35.5586 1.30518 36.155 1.65263C36.8495 2.05444 40.6743 6.67528 40.9114 7.43636C41.4359 9.12634 38.9092 12.0927 37.2686 11.3387C36.7609 11.107 31.7626 4.78913 31.6022 4.20768C31.3531 3.30242 33.76 1.58409 34.6031 1.40445L34.6054 1.40682Z" fill="white"/>
<path d="M113.38 8.64179C113.306 11.3316 113.476 14.045 113.395 16.7371C113.172 23.9556 113.05 31.4505 111.359 38.5012C111.17 39.2906 110.209 42.4838 109.872 42.9755C108.531 44.9349 103.135 42.7982 103.111 41.1366C103.101 40.5433 105.173 35.9248 105.515 34.6343C108.049 25.1444 106.136 15.6782 106.945 6.24982C107.12 4.21713 107.146 3.43005 109.35 3.23623C111.579 3.04005 124.392 3.79641 124.943 3.25278C125.12 3.07787 124.598 0.978996 125.243 0.537002C125.501 0.359732 130.634 0.262824 131.153 0.383368C131.673 0.503912 131.568 2.94788 133.139 3.24332L148.39 3.40641C149.482 3.94295 149.798 8.63942 148.227 8.63942H133.292V11.1756H145.497C146.105 13.2201 145.715 15.4064 145.815 17.5171C150.138 17.1366 149.846 17.6802 149.673 21.6369H145.818V27.4986C145.818 28.1604 143.459 27.9713 142.929 27.9784C142.929 28.5504 143.859 28.3046 144.314 28.5882C144.555 28.7371 144.742 29.2595 145.015 29.562C145.48 30.0773 146.007 29.4864 145.748 30.8975C145.382 32.8947 142.429 34.0765 141.006 35.4237C141.602 37.0924 147.619 38.903 147.911 39.3804C148.675 40.626 146.986 43.4458 145.813 43.9776C144.34 44.6441 142.699 43.3324 141.473 42.5665C138.467 40.6851 136.168 37.9292 133.292 35.9012V41.4486C133.292 42.5595 131.867 44.5496 130.737 44.9491C129.606 45.3485 124.641 45.7196 123.657 45.254C122.718 44.8096 121.87 41.4155 122.05 40.3377C122.246 40.1391 125.662 40.6686 126.656 40.047C127.204 39.7042 127.635 37.2414 126.718 37.4943L115.953 42.7178C113.835 44.162 111.074 39.8059 112.188 38.5295C113.143 37.4352 118.8 36.2865 120.443 35.5797C119.337 33.9819 116.146 32.8545 115.519 31.0889C114.951 29.4911 115.61 30.1151 116.111 29.562C116.678 28.9357 116.726 28.2715 117.873 28.288C117.749 27.5199 116.317 28.3542 115.912 27.7893C115.409 27.0873 115.45 23.8539 116.429 23.8539H127.187V21.6345C124.675 21.6889 122.143 21.5707 119.626 21.6227C118.343 21.6487 114.705 22.7903 114.341 20.8451C114.209 20.1454 114.254 17.5147 115.143 17.5147H127.187V15.2953H115.464C114.568 15.2953 115.088 11.1756 115.303 11.1756H127.187V8.63942H113.378L113.38 8.64179ZM133.294 15.2977V17.5171H140.36V15.2977H133.294ZM133.294 21.6369V23.8563H140.36V21.6369H133.294ZM127.192 27.9784H118.841L123.501 31.4742C124.179 32.8521 122.44 33.651 122.376 34.9487C123.133 34.5965 127.192 33.2658 127.192 32.5732V27.976V27.9784ZM142.285 27.9784H133.292C133.529 29.9118 136.456 30.862 137.627 32.4102L142.285 27.9784Z" fill="white"/>
</svg>
