<svg width="12" height="15" viewBox="0 0 12 15" fill="none" xmlns="http://www.w3.org/2000/svg">
<path d="M3.60002 2.70005C3.60002 1.37457 4.67454 0.300049 6.00002 0.300049C7.32551 0.300049 8.40003 1.37457 8.40003 2.70005V5.90005C8.40003 7.22553 7.32551 8.30005 6.00002 8.30005C4.67454 8.30005 3.60002 7.22553 3.60002 5.90005V2.70005Z" fill="white"/>
<path d="M6.80002 11.4433C9.51386 11.0552 11.6 8.72123 11.6 5.90005C11.6 5.45822 11.2419 5.10005 10.8 5.10005C10.3582 5.10005 10 5.45822 10 5.90005C10 8.10919 8.20916 9.90005 6.00002 9.90005C3.79089 9.90005 2.00002 8.10919 2.00002 5.90005C2.00002 5.45822 1.64185 5.10005 1.20002 5.10005C0.758197 5.10005 0.400024 5.45822 0.400024 5.90005C0.400024 8.72123 2.48619 11.0552 5.20002 11.4433V13.1H2.80002C2.3582 13.1 2.00002 13.4582 2.00002 13.9C2.00002 14.3419 2.3582 14.7 2.80002 14.7H9.20003C9.64185 14.7 10 14.3419 10 13.9C10 13.4582 9.64185 13.1 9.20003 13.1H6.80002V11.4433Z" fill="white"/>
</svg>
