<svg width="95" height="29" viewBox="0 0 95 29" fill="none" xmlns="http://www.w3.org/2000/svg">
<path d="M44.5605 6.13859C44.8049 6.19039 45.5427 6.79716 45.6252 7.07243C45.9221 8.07434 45.0794 12.4342 44.7989 13.7173C44.3011 15.9934 43.6203 18.1674 42.6816 20.3C42.779 20.8298 45.6792 22.477 46.0826 23.0926C46.7514 24.1138 45.0554 26.4003 43.9517 26.3781C43.4868 26.3677 41.2315 24.0561 40.7396 23.6076C39.7994 24.9707 38.7872 26.2908 37.5261 27.3829C36.6533 28.1392 35.9635 28.9324 34.6904 28.3804C34.1536 28.1481 32.7095 26.6933 32.825 26.1102C32.8909 25.7728 37.6281 22.5761 37.787 21.3197C37.787 20.8905 33.9751 18.8023 33.6362 17.7057C33.2973 16.6091 35.4132 9.91537 35.0083 9.51283C34.4445 9.47583 33.3933 9.72002 33.0964 9.11621C32.9404 8.7995 32.9134 6.79864 33.0244 6.46418C33.2568 5.76417 35.2887 6.36798 35.5886 6.11639C35.8646 5.88553 36.04 2.0392 36.256 1.31699C36.5229 0.423117 39.6525 0.662865 39.9044 1.22524C40.2178 1.92376 39.555 5.19292 39.4305 6.13859C40.9001 6.3517 43.2049 5.85001 44.559 6.13859H44.5605ZM41.6454 9.71114H38.8307C38.4798 9.71114 38.1514 15.8514 37.646 16.5277L39.6315 18.0461C40.7291 15.3793 41.368 12.5807 41.6454 9.70966V9.71114Z" fill="white"/>
<path d="M55.5208 13.0853H60.4484C60.5534 13.0853 61.3526 13.698 61.3526 13.7794V16.6579L55.7218 16.8562V24.6954C55.7218 24.9751 55.3514 26.2301 55.1984 26.5601C54.7486 27.528 53.6614 28.4056 52.5877 28.5476C51.8139 28.6497 49.1177 28.7755 48.5779 28.37C47.9421 27.892 47.0333 24.793 47.7786 24.793H50.7957C50.8782 24.793 51.499 24.0042 51.499 23.9007V16.8547H46.3705C46.3045 16.8547 46.0646 16.5913 45.8682 16.6564V13.778C45.8682 13.5722 46.363 13.0839 46.5715 13.0839H51.499V9.31302C51.499 9.23014 52.5877 8.70773 52.9086 8.4221C53.8023 7.63034 54.5776 6.68763 55.5208 5.93878H46.7724C45.8577 5.93878 45.7062 2.30556 47.0183 2.21233L58.6414 2.16349C61.789 3.16836 60.123 5.71827 58.8169 7.50603C58.187 8.36882 56.1341 10.4274 55.8237 11.1022C55.5508 11.6972 55.9107 12.4712 55.5193 13.0839L55.5208 13.0853Z" fill="white"/>
<path d="M11.2793 9.31451C10.4051 9.42994 9.56533 9.6179 8.6656 9.51282V14.0769C10.0467 13.5708 11.3468 12.8634 11.6332 14.8198C11.9766 17.1581 10.573 17.1537 8.68659 17.6702C8.32369 20.0765 9.41987 25.6011 7.84084 27.4569C7.80635 27.4969 7.05957 28.0815 7.01008 28.1037C6.89911 28.1525 6.65768 28.0001 6.45524 28.0622C6.11934 28.1658 5.85392 28.45 5.50302 28.5225C5.05315 28.6157 2.92678 28.6572 2.56389 28.5343C1.92958 28.3197 1.30726 25.7136 1.42572 24.9943H4.34236C5.20911 24.9943 4.38885 19.5571 4.64378 18.8423C3.64807 18.8008 2.04954 19.6281 1.1573 19.0583C0.741925 18.7934 0.452509 16.7038 0.72093 16.2598C1.09582 15.6397 4.19841 15.6294 4.84622 14.9738V9.61494C4.84622 9.59422 4.5658 9.31747 4.54481 9.31747H1.12581C0.722432 9.31747 0.72693 6.45973 0.834898 6.35022C1.09882 6.08235 4.05745 6.15487 4.64528 6.14155V1.27851C4.64528 0.295838 8.06727 0.430511 8.41816 0.831571C8.9715 1.46498 8.51414 5.12928 8.66709 6.14155C12.1611 5.85296 11.5477 6.61364 11.2823 9.31599C12.5479 9.14876 13.8136 8.87645 15.1047 8.91937C15.0177 6.62104 14.6233 3.73371 14.8918 1.46646C14.9158 1.26667 14.9832 0.781254 15.2037 0.781254H18.1203C18.1743 0.781254 18.5522 1.5523 18.7276 1.66773C18.7606 4.01785 18.8566 6.40202 19.128 8.72106L26.4699 7.92338C27.2361 8.07729 27.9214 10.6982 26.8223 11.0549C25.8895 11.3494 19.4219 11.6276 19.314 12.0154C19.5089 13.7084 19.6918 15.4325 20.1342 17.053C20.893 16.4922 23.0704 12.5245 23.6867 12.3173C24.6764 11.9858 26.4864 13.5974 26.3334 14.5224C26.068 16.1266 22.8799 19.5911 21.8452 21.0266C21.2859 22.2076 22.8214 23.8444 23.6507 24.5918L24.8848 22.0004C27.3321 22.8322 29.0011 22.4888 28.0294 25.5449C26.104 31.6052 20.1432 28.5373 18.4187 24.1966C17.9629 24.1952 13.932 27.8876 12.5719 27.9719C11.5642 28.0341 9.96121 24.8064 11.3348 24.1493C12.6964 23.4966 14.8273 22.2816 16.0029 21.2146C17.5205 19.8383 16.6432 19.5408 16.3043 17.7412C15.9654 15.9387 15.649 14.105 15.4151 12.2773C14.6398 11.8171 11.8252 12.4327 11.4773 12.2018C10.7695 11.7312 11.2223 9.94496 11.2838 9.31451H11.2793Z" fill="white"/>
<path d="M22.2846 1.41022C22.7135 1.31846 22.8814 1.34658 23.2548 1.56413C23.6897 1.81572 26.0845 4.70898 26.2329 5.18551C26.5613 6.24366 24.9793 8.10097 23.9521 7.62887C23.6342 7.48384 20.5046 3.52799 20.4041 3.16393C20.2482 2.59712 21.7552 1.52121 22.2831 1.40874L22.2846 1.41022Z" fill="white"/>
<path d="M71.6081 5.94027C71.5616 7.62443 71.6681 9.32338 71.6171 11.009C71.4776 15.5287 71.4012 20.2216 70.3425 24.6362C70.224 25.1305 69.6227 27.1299 69.4113 27.4377C68.5715 28.6645 65.193 27.3267 65.178 26.2863C65.172 25.9148 66.4691 23.0231 66.6836 22.215C68.2701 16.2731 67.0719 10.346 67.5788 4.44259C67.6883 3.16985 67.7048 2.67703 69.0843 2.55568C70.4804 2.43285 78.5031 2.90642 78.848 2.56604C78.9589 2.45652 78.632 1.14235 79.0354 0.865604C79.1974 0.75461 82.4109 0.693933 82.7363 0.769409C83.0617 0.844885 82.9958 2.37513 83.9795 2.56012L93.5287 2.66223C94.2125 2.99818 94.4104 5.93879 93.4267 5.93879H84.0754V7.52675H91.7172C92.0981 8.80689 91.8537 10.1758 91.9166 11.4974C94.6233 11.2591 94.4404 11.5995 94.3324 14.0769H91.9181V17.7471C91.9181 18.1615 90.4411 18.0431 90.1097 18.0476C90.1097 18.4057 90.6915 18.2518 90.9764 18.4294C91.1279 18.5226 91.2448 18.8497 91.4158 19.0391C91.7067 19.3617 92.0366 18.9917 91.8746 19.8753C91.6452 21.1258 89.7963 21.8658 88.9055 22.7093C89.2789 23.7542 93.0458 24.8878 93.2287 25.1867C93.7071 25.9666 92.6499 27.7322 91.9151 28.0652C90.9929 28.4825 89.9657 27.6612 89.1979 27.1817C87.316 26.0036 85.8764 24.278 84.0754 23.0083V26.4817C84.0754 27.1772 83.1832 28.4233 82.4754 28.6734C81.7676 28.9235 78.659 29.1559 78.0427 28.8643C77.4549 28.5861 76.924 26.4609 77.0365 25.7861C77.1595 25.6618 79.2978 25.9933 79.9202 25.6041C80.2636 25.3895 80.5335 23.8474 79.9592 24.0057L73.2186 27.2764C71.893 28.1806 70.164 25.4531 70.8613 24.6539C71.4597 23.9687 75.0016 23.2495 76.0303 22.807C75.3375 21.8066 73.3401 21.1006 72.9472 19.9951C72.5918 18.9947 73.0042 19.3854 73.3176 19.0391C73.673 18.6469 73.703 18.2311 74.4213 18.2414C74.3433 17.7604 73.4466 18.2829 73.1931 17.9292C72.8782 17.4896 72.9037 15.4651 73.517 15.4651H80.2531V14.0754C78.68 14.1095 77.095 14.0355 75.519 14.068C74.7152 14.0843 72.4374 14.7991 72.2094 13.5811C72.127 13.1431 72.1554 11.4959 72.7118 11.4959H80.2531V10.1063H72.9127C72.3519 10.1063 72.6773 7.52675 72.8122 7.52675H80.2531V5.93879H71.6066L71.6081 5.94027ZM84.0769 10.1077V11.4974H88.5006V10.1077H84.0769ZM84.0769 14.0769V15.4666H88.5006V14.0769H84.0769ZM80.2561 18.0476H75.0271L77.9452 20.2364C78.3696 21.0992 77.2809 21.5994 77.2405 22.4119C77.7143 22.1913 80.2561 21.3581 80.2561 20.9245V18.0461V18.0476ZM89.7063 18.0476H84.0754C84.2239 19.2581 86.0564 19.8531 86.7896 20.8224L89.7063 18.0476Z" fill="white"/>
</svg>
