<svg width="29" height="37" viewBox="0 0 29 37" fill="none" xmlns="http://www.w3.org/2000/svg">
<ellipse cx="14" cy="34" rx="6" ry="3" fill="#979797"/>
<path fill-rule="evenodd" clip-rule="evenodd" d="M27.1818 14.0909C27.1818 24.2727 14.0909 33 14.0909 33C14.0909 33 1 24.2727 1 14.0909C1 6.861 6.861 1 14.0909 1C21.3208 1 27.1818 6.861 27.1818 14.0909Z" fill="#F6A623" stroke="#F6A623" stroke-width="2" stroke-linecap="round" stroke-linejoin="round"/>
<path fill-rule="evenodd" clip-rule="evenodd" d="M14 23C18.9706 23 23 18.9706 23 14C23 9.02944 18.9706 5 14 5C9.02944 5 5 9.02944 5 14C5 18.9706 9.02944 23 14 23Z" fill="white" stroke="white" stroke-width="2" stroke-linecap="round" stroke-linejoin="round"/>
<path d="M14.3125 17.8182V17.2045C14.3125 16.7386 14.411 16.3106 14.608 15.9205C14.8087 15.5265 15.0985 15.2121 15.4773 14.9773C15.8598 14.7386 16.3258 14.6193 16.875 14.6193C17.4318 14.6193 17.8996 14.7367 18.2784 14.9716C18.661 15.2064 18.9489 15.5208 19.142 15.9148C19.339 16.3049 19.4375 16.7348 19.4375 17.2045V17.8182C19.4375 18.2841 19.339 18.714 19.142 19.108C18.9451 19.4981 18.6553 19.8106 18.2727 20.0455C17.8902 20.2841 17.4242 20.4034 16.875 20.4034C16.3182 20.4034 15.8504 20.2841 15.4716 20.0455C15.0928 19.8106 14.8049 19.4981 14.608 19.108C14.411 18.714 14.3125 18.2841 14.3125 17.8182ZM15.9659 17.2045V17.8182C15.9659 18.0871 16.0303 18.3409 16.1591 18.5795C16.2917 18.8182 16.5303 18.9375 16.875 18.9375C17.2197 18.9375 17.4545 18.8201 17.5795 18.5852C17.7083 18.3504 17.7727 18.0947 17.7727 17.8182V17.2045C17.7727 16.928 17.7121 16.6705 17.5909 16.4318C17.4697 16.1932 17.2311 16.0739 16.875 16.0739C16.5341 16.0739 16.2973 16.1932 16.1648 16.4318C16.0322 16.6705 15.9659 16.928 15.9659 17.2045ZM8.34091 11.1591V10.5455C8.34091 10.0758 8.44129 9.64583 8.64205 9.25568C8.8428 8.86174 9.13258 8.54735 9.51136 8.3125C9.89394 8.07765 10.3561 7.96023 10.8977 7.96023C11.4583 7.96023 11.928 8.07765 12.3068 8.3125C12.6856 8.54735 12.9735 8.86174 13.1705 9.25568C13.3674 9.64583 13.4659 10.0758 13.4659 10.5455V11.1591C13.4659 11.6288 13.3655 12.0587 13.1648 12.4489C12.9678 12.839 12.678 13.1515 12.2955 13.3864C11.9167 13.6174 11.4508 13.733 10.8977 13.733C10.3447 13.733 9.87689 13.6155 9.49432 13.3807C9.11553 13.142 8.82765 12.8295 8.63068 12.4432C8.4375 12.053 8.34091 11.625 8.34091 11.1591ZM10.0057 10.5455V11.1591C10.0057 11.4356 10.0701 11.6913 10.1989 11.9261C10.3314 12.161 10.5644 12.2784 10.8977 12.2784C11.2462 12.2784 11.483 12.161 11.608 11.9261C11.7367 11.6913 11.8011 11.4356 11.8011 11.1591V10.5455C11.8011 10.2689 11.7405 10.0114 11.6193 9.77273C11.4981 9.53409 11.2576 9.41477 10.8977 9.41477C10.5606 9.41477 10.3277 9.53598 10.1989 9.77841C10.0701 10.0208 10.0057 10.2765 10.0057 10.5455ZM9.09091 20L17.0909 8.36364H18.5795L10.5795 20H9.09091Z" fill="#F6A623"/>
</svg>
