<svg width="52" height="52" viewBox="0 0 52 52" fill="none" xmlns="http://www.w3.org/2000/svg">
<circle cx="26" cy="26" r="24" fill="#979797"/>
<path d="M39.9344 33.1337C39.6082 32.7862 38.4563 31.7587 36.3387 30.3993C34.2055 29.028 32.6324 28.173 32.1811 27.9736C32.1413 27.956 32.0975 27.9495 32.0544 27.9549C32.0112 27.9603 31.9703 27.9774 31.9361 28.0043C31.2092 28.5712 29.9854 29.6124 29.9198 29.6687C29.496 30.0318 29.496 30.0318 29.1492 29.9187C28.5391 29.7187 26.6441 28.7124 24.9928 27.0574C23.3415 25.4024 22.2834 23.4604 22.0833 22.8511C21.969 22.5035 21.969 22.5035 22.3334 22.0798C22.3896 22.0142 23.4315 20.7904 23.9984 20.0641C24.0253 20.0299 24.0423 19.989 24.0477 19.9459C24.0531 19.9027 24.0467 19.8589 24.029 19.8191C23.8296 19.3672 22.9746 17.7947 21.6033 15.6615C20.242 13.5446 19.2158 12.3927 18.8683 12.0665C18.8364 12.0364 18.797 12.0154 18.7542 12.0059C18.7114 11.9963 18.6668 11.9985 18.6251 12.0121C17.4104 12.4295 16.2384 12.9622 15.125 13.6028C14.0503 14.2275 13.0328 14.946 12.0843 15.7497C12.0512 15.7778 12.0264 15.8144 12.0125 15.8556C11.9987 15.8968 11.9963 15.941 12.0056 15.9834C12.1362 16.5922 12.7606 19.1335 14.6981 22.6535C16.6751 26.2461 18.0451 28.0868 20.9483 30.98C23.8515 33.8731 25.7503 35.3257 29.3467 37.3026C32.8668 39.2401 35.4093 39.8651 36.0168 39.9945C36.0594 40.0037 36.1036 40.0013 36.1449 39.9874C36.1861 39.9736 36.2229 39.9488 36.2512 39.9157C37.0548 38.9674 37.773 37.9498 38.3975 36.8751C39.038 35.7617 39.5706 34.5897 39.9882 33.375C40.0016 33.3336 40.0036 33.2895 39.9942 33.2471C39.9847 33.2046 39.9641 33.1655 39.9344 33.1337Z" fill="white"/>
</svg>
