<svg width="48" height="48" viewBox="0 0 48 48" fill="none" xmlns="http://www.w3.org/2000/svg">
<g filter="url(#filter0_d_38_56)">
<rect x="4" y="2" width="40" height="40" rx="20" fill="white" shape-rendering="crispEdges"/>
<path d="M16.8001 28C16.1374 28 15.6001 28.5373 15.6001 29.2C15.6001 29.8627 16.1374 30.4 16.8001 30.4L25.5212 30.4C25.9361 31.1174 26.7118 31.6 27.6001 31.6C28.4884 31.6 29.264 31.1174 29.679 30.4L31.2001 30.4C31.8628 30.4 32.4001 29.8627 32.4001 29.2C32.4001 28.5373 31.8628 28 31.2001 28L29.679 28C29.264 27.2826 28.4884 26.8 27.6001 26.8C26.7118 26.8 25.9361 27.2826 25.5212 28L16.8001 28Z" fill="#4C4C4C"/>
<path d="M16.8001 20.8C16.1374 20.8 15.6001 21.3373 15.6001 22C15.6001 22.6627 16.1374 23.2 16.8001 23.2L18.3212 23.2C18.7361 23.9174 19.5118 24.4 20.4001 24.4C21.2884 24.4 22.064 23.9174 22.479 23.2L31.2001 23.2C31.8628 23.2 32.4001 22.6627 32.4001 22C32.4001 21.3373 31.8628 20.8 31.2001 20.8L22.479 20.8C22.064 20.0826 21.2884 19.6 20.4001 19.6C19.5118 19.6 18.7361 20.0826 18.3212 20.8L16.8001 20.8Z" fill="#4C4C4C"/>
<path d="M15.6001 14.8C15.6001 14.1373 16.1374 13.6 16.8001 13.6L25.5212 13.6C25.9361 12.8826 26.7118 12.4 27.6001 12.4C28.4884 12.4 29.264 12.8826 29.679 13.6L31.2001 13.6C31.8628 13.6 32.4001 14.1373 32.4001 14.8C32.4001 15.4627 31.8628 16 31.2001 16L29.679 16C29.264 16.7174 28.4884 17.2 27.6001 17.2C26.7118 17.2 25.9361 16.7174 25.5212 16L16.8001 16C16.1374 16 15.6001 15.4627 15.6001 14.8Z" fill="#4C4C4C"/>
</g>
<defs>
<filter id="filter0_d_38_56" x="0" y="0" width="48" height="48" filterUnits="userSpaceOnUse" color-interpolation-filters="sRGB">
<feFlood flood-opacity="0" result="BackgroundImageFix"/>
<feColorMatrix in="SourceAlpha" type="matrix" values="0 0 0 0 0 0 0 0 0 0 0 0 0 0 0 0 0 0 127 0" result="hardAlpha"/>
<feOffset dy="2"/>
<feGaussianBlur stdDeviation="2"/>
<feComposite in2="hardAlpha" operator="out"/>
<feColorMatrix type="matrix" values="0 0 0 0 0 0 0 0 0 0 0 0 0 0 0 0 0 0 0.1 0"/>
<feBlend mode="normal" in2="BackgroundImageFix" result="effect1_dropShadow_38_56"/>
<feBlend mode="normal" in="SourceGraphic" in2="effect1_dropShadow_38_56" result="shape"/>
</filter>
</defs>
</svg>
