<svg width="29" height="28" viewBox="0 0 29 28" fill="none" xmlns="http://www.w3.org/2000/svg">
<path d="M21.3831 9.33334C23.3161 9.33334 24.8831 7.76634 24.8831 5.83334C24.8831 3.90035 23.3161 2.33334 21.3831 2.33334C19.4501 2.33334 17.8831 3.90035 17.8831 5.83334C17.8831 7.76634 19.4501 9.33334 21.3831 9.33334Z" stroke="white" stroke-width="2" stroke-linecap="round" stroke-linejoin="round"/>
<path d="M7.38306 17.5C9.31605 17.5 10.8831 15.933 10.8831 14C10.8831 12.067 9.31605 10.5 7.38306 10.5C5.45006 10.5 3.88306 12.067 3.88306 14C3.88306 15.933 5.45006 17.5 7.38306 17.5Z" stroke="white" stroke-width="2" stroke-linecap="round" stroke-linejoin="round"/>
<path d="M21.3831 25.6667C23.3161 25.6667 24.8831 24.0997 24.8831 22.1667C24.8831 20.2337 23.3161 18.6667 21.3831 18.6667C19.4501 18.6667 17.8831 20.2337 17.8831 22.1667C17.8831 24.0997 19.4501 25.6667 21.3831 25.6667Z" stroke="white" stroke-width="2" stroke-linecap="round" stroke-linejoin="round"/>
<path d="M10.4048 15.7617L18.3731 20.405" stroke="white" stroke-width="2" stroke-linecap="round" stroke-linejoin="round"/>
<path d="M18.3615 7.595L10.4048 12.2383" stroke="white" stroke-width="2" stroke-linecap="round" stroke-linejoin="round"/>
</svg>
